PathFileType	4	(X/Y/Z)
DataRate	CameraRate	NumFrames	NumMarkers	Units	OrigDataRate	OrigDataStartFrame	OrigNumFrames	
  120.0	  120.0	    4	     64	     mm	  120.0	      150	    239
Frame#	Time	LASI			RASI			LPSI			RPSI			RTH1			RTH2			RTH3			RLFC			RMFC			LTH1			LTH2			LTH3			LLFC			LMFC			RTB1			RTB2			RTB3			RLMAL			RMMAL			LTB1			LTB2			LTB3			LMMAL			LLMAL			RCAL			RTOE			RMT5			LCAL			LTOE			LMT5			LACR			RACR			CLAV			C7			LASH			LPSH			RASH			RPSH			RUA1			RUA2			RUA3			RLEL			RMEL			LUA1			LUA2			LUA3			LLEL			LMEL			RFAsuperior			RFAradius			RFAulna			LFAsuperior			LFAradius			LFAulna			RHJC			LHJC			RKJC			LKJC			RAJC			LAJC			RSJC			LSJC			REJC			LEJC			
		X1	Y1	Z1	X2	Y2	Z2	X3	Y3	Z3	X4	Y4	Z4	X5	Y5	Z5	X6	Y6	Z6	X7	Y7	Z7	X8	Y8	Z8	X9	Y9	Z9	X10	Y10	Z10	X11	Y11	Z11	X12	Y12	Z12	X13	Y13	Z13	X14	Y14	Z14	X15	Y15	Z15	X16	Y16	Z16	X17	Y17	Z17	X18	Y18	Z18	X19	Y19	Z19	X20	Y20	Z20	X21	Y21	Z21	X22	Y22	Z22	X23	Y23	Z23	X24	Y24	Z24	X25	Y25	Z25	X26	Y26	Z26	X27	Y27	Z27	X28	Y28	Z28	X29	Y29	Z29	X30	Y30	Z30	X31	Y31	Z31	X32	Y32	Z32	X33	Y33	Z33	X34	Y34	Z34	X35	Y35	Z35	X36	Y36	Z36	X37	Y37	Z37	X38	Y38	Z38	X39	Y39	Z39	X40	Y40	Z40	X41	Y41	Z41	X42	Y42	Z42	X43	Y43	Z43	X44	Y44	Z44	X45	Y45	Z45	X46	Y46	Z46	X47	Y47	Z47	X48	Y48	Z48	X49	Y49	Z49	X50	Y50	Z50	X51	Y51	Z51	X52	Y52	Z52	X53	Y53	Z53	X54	Y54	Z54	X55	Y55	Z55	X56	Y56	Z56	X57	Y57	Z57	X58	Y58	Z58	X59	Y59	Z59	X60	Y60	Z60	X61	Y61	Z61	X62	Y62	Z62	X63	Y63	Z63	X64	Y64	Z64	

150	1.24167	613.71826	1098.81787	-626.87891	757.72931	1106.46277	-406.24936	513.06775	1134.44702	-451.75470	555.84180	1132.53992	-379.35095	725.09430	941.30121	-309.24045	750.37555	830.11908	-329.37814	663.64160	726.30243	-290.48471	684.32507	551.14093	-292.87781	586.32947	532.19641	-367.93228	505.56308	895.21716	-630.62134	536.71448	766.52533	-643.72253	464.56027	665.56653	-586.63086	468.50500	563.88025	-594.67584	517.66675	550.01471	-481.04083	666.76453	416.78284	-355.41574	691.68933	355.63583	-283.23206	668.48468	250.38760	-347.13702	662.53534	124.68184	-286.75647	625.67114	130.93957	-358.80283	513.79608	428.57342	-574.50897	458.48752	348.06290	-609.95776	508.78586	228.89635	-575.28296	503.10226	127.41100	-529.33404	449.31894	124.83331	-589.48511	582.07678	99.40524	-289.21991	742.52594	57.58429	-437.45364	773.81189	54.41820	-324.57379	422.75983	97.43613	-519.01746	630.25269	63.34754	-615.26459	533.91327	53.30165	-680.31030	497.89792	1603.35999	-572.32458	675.41681	1604.33911	-325.56073	674.00549	1551.22192	-474.49518	549.67145	1601.20886	-415.07864	558.60400	1560.10388	-597.04901	430.99725	1541.46667	-550.23126	720.85504	1560.37390	-367.65015	627.46149	1553.29602	-276.28897	721.35114	1571.23438	-238.85095	799.13886	1539.93628	-222.31917	768.05914	1508.34876	-160.20651	885.88629	1499.15027	-69.89037	884.58606	1426.31348	-105.05183	431.79379	1574.69104	-634.03241	438.54153	1556.47302	-696.20502	379.15509	1484.25098	-672.35126	312.14655	1487.95764	-838.60187	332.10101	1410.50024	-829.31476	964.72388	1543.29175	-131.67686	1094.73206	1541.17078	-258.04514	1125.00586	1563.78015	-197.01543	392.13992	1520.77039	-887.39276	557.51715	1511.99451	-969.81982	516.43060	1521.72156	-1029.22717	674.17444	1032.12393	-398.06978	577.79781	1030.01978	-552.64433	635.32727	541.66867	-330.40504	493.08588	556.94748	-537.85834	644.10324	127.81071	-322.77965	476.21060	126.12215	-559.40958	674.15826	1556.83496	-321.96956	494.80063	1550.78528	-573.64014	885.23618	1462.73187	-87.47110	322.12378	1449.22894	-833.95831	
151	1.25000	613.78760	1098.79590	-626.93872	757.80249	1106.42883	-406.34549	513.14557	1134.43347	-451.78296	555.89014	1132.57788	-379.37402	725.16540	941.29571	-309.27545	750.40765	830.10663	-329.41922	663.67902	726.30066	-290.49795	684.36316	551.14105	-292.89429	586.28650	532.20917	-367.90631	505.58072	895.21704	-630.67682	536.73871	766.52649	-643.72022	464.55283	665.55994	-586.64307	468.52231	563.89642	-594.70435	517.71509	550.00543	-481.06091	666.74793	416.78134	-355.43576	691.68439	355.64026	-283.23798	668.49145	250.38881	-347.13574	662.52795	124.68792	-286.76794	625.59582	130.96756	-358.73352	513.81867	428.57724	-574.49658	458.50272	348.07785	-609.99622	508.77249	228.89760	-575.27405	503.10254	127.41045	-529.33429	449.31662	124.82619	-589.46368	582.06897	99.40282	-289.23416	742.49426	57.53741	-437.43396	773.82806	54.44556	-324.55090	422.77145	97.44005	-519.01386	630.25317	63.35191	-615.28101	533.89514	53.30730	-680.30096	497.98993	1603.36914	-572.38495	675.51453	1604.36243	-325.63644	674.10809	1551.22839	-474.54468	549.78412	1601.20642	-415.12601	558.67499	1560.08093	-597.10205	431.01428	1541.50745	-550.28351	720.92053	1560.37085	-367.70386	627.59088	1553.27686	-276.54636	721.45563	1571.26221	-238.89825	799.26117	1539.95251	-222.38405	768.19476	1508.41504	-160.29013	886.00525	1499.16589	-69.94536	884.69318	1426.32764	-105.08718	431.83008	1574.76868	-634.07764	438.63428	1556.51843	-696.25171	379.27695	1484.25159	-672.42877	312.26199	1487.99658	-838.66687	332.22464	1410.51111	-829.39496	964.81397	1543.29321	-131.78560	1094.81372	1541.13733	-258.18658	1125.12061	1563.79297	-197.13827	392.26328	1520.78076	-887.51367	557.75049	1512.06531	-969.84930	516.54150	1521.78723	-1029.25659	674.24500	1032.10625	-398.13454	577.83676	1030.01284	-552.68913	635.32483	541.67511	-330.40030	493.11870	556.95093	-537.88263	644.06189	127.82774	-322.75073	476.20958	126.11832	-559.39899	674.25571	1556.82385	-322.12511	494.84463	1550.79419	-573.69278	885.34921	1462.74677	-87.51627	322.24332	1449.25385	-834.03091	
152	1.25833	613.81842	1098.79004	-627.00073	757.86560	1106.40076	-406.40894	513.16754	1134.43897	-451.83902	555.92285	1132.57336	-379.41080	725.22693	941.29804	-309.33286	750.43329	830.08984	-329.53693	663.77154	726.29932	-290.54694	684.41394	551.18445	-292.87363	586.28406	532.21295	-367.92795	505.67642	895.23395	-630.78375	536.76050	766.53864	-643.78003	464.59653	665.58478	-586.65820	468.52048	563.91852	-594.72217	517.70532	550.00372	-481.08481	666.77954	416.79486	-355.50003	691.68164	355.69498	-283.24875	668.45715	250.37346	-347.08737	662.52368	124.67879	-286.79199	625.61932	130.97228	-358.75693	513.81750	428.58615	-574.55414	458.49457	348.06986	-609.95984	508.80881	228.91769	-575.30420	503.07742	127.41027	-529.33630	449.25363	124.80579	-589.50458	582.06604	99.39628	-289.24310	742.45136	57.45288	-437.25598	773.81110	54.43219	-324.57248	422.77512	97.46317	-518.99316	630.24719	63.35070	-615.26453	533.87793	53.30217	-680.28925	498.09811	1603.35693	-572.46649	675.64191	1604.39063	-325.68820	674.18921	1551.27576	-474.58560	549.89459	1601.22693	-415.21426	558.77069	1560.10071	-597.15875	430.86877	1541.52844	-550.32446	721.04639	1560.40125	-367.79208	627.72022	1553.37915	-276.41074	721.56378	1571.28003	-238.97937	799.39136	1539.97498	-222.43262	768.33087	1508.44922	-160.40967	886.10431	1499.20154	-70.02549	884.82898	1426.35425	-105.13674	431.92911	1574.75501	-634.18073	438.74695	1556.54248	-696.35980	379.34241	1484.27722	-672.51801	312.29712	1487.98791	-838.74390	332.31055	1410.55200	-829.47162	964.87482	1543.27747	-131.91496	1094.90772	1541.15051	-258.27963	1125.25366	1563.81018	-197.26579	392.38721	1520.83728	-887.54730	557.92059	1512.21240	-969.83649	516.65430	1521.81360	-1029.31738	674.27788	1032.08959	-398.19335	577.86885	1030.00847	-552.74794	635.34900	541.69870	-330.40079	493.11290	556.96112	-537.90349	644.07150	127.82554	-322.77446	476.16553	126.10803	-559.42044	674.38330	1556.89020	-322.10141	494.81973	1550.81457	-573.74161	885.46664	1462.77789	-87.58112	322.30383	1449.26996	-834.10776	
153	1.26667	613.91260	1098.78223	-627.07275	757.92395	1106.41748	-406.45245	513.23529	1134.44104	-451.86816	555.97601	1132.57227	-379.43439	725.28027	941.29645	-309.35629	750.46973	830.08942	-329.55631	663.80255	726.28565	-290.56595	684.43848	551.15991	-292.99149	586.36902	532.21277	-367.98267	505.63428	895.22101	-630.70367	536.75751	766.51917	-643.81146	464.61572	665.58758	-586.65485	468.55633	563.89832	-594.74152	517.69098	550.02026	-481.09222	666.83539	416.79968	-355.54211	691.72223	355.65955	-283.25656	668.41266	250.33966	-346.95148	662.54413	124.71889	-286.76898	625.65344	130.94232	-358.82291	513.84857	428.58328	-574.52753	458.50842	348.06259	-609.99658	508.79358	228.89510	-575.28509	503.09885	127.44340	-529.32410	449.36844	124.82723	-589.48096	582.07269	99.41757	-289.23053	742.52191	57.54864	-437.47949	773.80084	54.39227	-324.59994	422.77887	97.49776	-518.98474	630.23468	63.34591	-615.27997	533.88873	53.27866	-680.29822	498.20505	1603.36438	-572.55994	675.75427	1604.37073	-325.77481	674.29681	1551.26172	-474.71005	550.00409	1601.25586	-415.28336	558.86786	1560.11658	-597.22339	431.32556	1541.45618	-550.50482	721.15179	1560.37415	-367.80188	627.80975	1553.37122	-276.49027	721.71759	1571.29053	-239.02237	799.50647	1539.99451	-222.49820	768.41956	1508.42615	-160.61038	886.23321	1499.24158	-70.09480	884.95270	1426.37927	-105.22269	432.04388	1574.76111	-634.25177	438.85324	1556.53650	-696.43927	379.39938	1484.30835	-672.60443	312.47565	1488.01404	-838.84851	332.39746	1410.57764	-829.54248	965.03204	1543.38257	-131.95068	1094.99512	1541.10913	-258.40045	1125.36499	1563.80029	-197.41666	392.49551	1520.84485	-887.63159	557.94104	1512.21802	-969.76648	516.78937	1521.83166	-1029.35400	674.36283	1032.09663	-398.24409	577.93843	1030.00732	-552.78806	635.40375	541.68634	-330.48708	493.12366	556.95929	-537.91687	644.09879	127.83060	-322.79594	476.23364	126.13531	-559.40253	674.48077	1556.87268	-322.14607	495.09671	1550.78638	-573.86411	885.59296	1462.81042	-87.65874	322.43655	1449.29584	-834.19550	
